<?xml version="1.0" encoding="utf-8"?><svg xmlns="http://www.w3.org/2000/svg" xmlns:xlink="http://www.w3.org/1999/xlink" width="1474" height="150" preserveAspectRatio="xMidYMid" viewBox="0 0 1474 150" style="z-index:1;margin-right:-2px;display:block;background-repeat-y:initial;background-repeat-x:initial;background-color:rgba(255, 255, 255, 0);animation-play-state:paused" ><g transform="translate(737,75) scale(1,1) translate(-737,-75)" style="transform:matrix(1, 0, 0, 1, 0, 0);animation-play-state:paused" ><linearGradient id="lg-0.5330397873193427" x1="0" x2="1" y1="0" y2="0" style="animation-play-state:paused" ><stop stop-color="#a2d9ff" offset="0" style="animation-play-state:paused" ></stop>

  
<stop stop-color="#00e0ff" offset="1" style="animation-play-state:paused" ></stop></linearGradient>
<path d="M 0 0 L 0 97.5695 Q 147.4 177.096 294.8 137.527 T 589.6 53.3441 T 884.4 92.4627 T 1179.2 56.0973 T 1474 57.1073 L 1474 0 Z" fill="url(#lg-0.5330397873193427)" opacity="0.4" style="opacity:0.4;animation-play-state:paused" ></path>
<path d="M 0 0 L 0 118.566 Q 147.4 120.304 294.8 88.0837 T 589.6 105.883 T 884.4 115.607 T 1179.2 90.7098 T 1474 54.5277 L 1474 0 Z" fill="url(#lg-0.5330397873193427)" opacity="0.4" style="opacity:0.4;animation-play-state:paused" ></path>
<path d="M 0 0 L 0 108.068 Q 147.4 120.453 294.8 81.8796 T 589.6 108.002 T 884.4 93.7735 T 1179.2 50.2571 T 1474 84.1855 L 1474 0 Z" fill="url(#lg-0.5330397873193427)" opacity="0.4" style="opacity:0.4;animation-play-state:paused" ></path>
<path d="M 0 0 L 0 117.604 Q 147.4 138.761 294.8 98.4511 T 589.6 120.916 T 884.4 71.8035 T 1179.2 75.8896 T 1474 67.4881 L 1474 0 Z" fill="url(#lg-0.5330397873193427)" opacity="0.4" style="opacity:0.4;animation-play-state:paused" ></path>
<path d="M 0 0 L 0 80.0109 Q 147.4 127.834 294.8 98.7112 T 589.6 83.7342 T 884.4 94.7688 T 1179.2 70.5809 T 1474 82.5015 L 1474 0 Z" fill="url(#lg-0.5330397873193427)" opacity="0.4" style="opacity:0.4;animation-play-state:paused" ></path></g></svg>