<?xml version="1.0" encoding="utf-8"?><svg xmlns="http://www.w3.org/2000/svg" xmlns:xlink="http://www.w3.org/1999/xlink" width="1474" height="762" preserveAspectRatio="xMidYMid" viewBox="0 0 1474 762" style="z-index:1;margin-right:-2px;display:block;background-repeat-y:initial;background-repeat-x:initial;animation-play-state:paused" ><g transform="translate(737,381) scale(1,1) translate(-737,-381)" style="transform:matrix(1, 0, 0, 1, 0, 0);animation-play-state:paused" ><g transform="translate(1319.3442441208838,-70.71249854224357) scale(100)" opacity="0.4" style="transform:matrix(100, 0, 0, 100, 1319.34, -70.7125);opacity:0.4;animation-play-state:paused" ><path d="M6.1908 0 C6.1908 1.3265999999999996 8.067124382033922 3.1257306993395626 7.403824382033923 4.274599999999999 S4.244269300660437 4.698090069748703 3.095400000000001 5.361390069748703 S1.3266 8.549199999999999 5.234875207635275e-16 8.549199999999999 S-1.9465306993395628 6.024690069748703 -3.095399999999999 5.361390069748704 S-6.74052438203392 5.423469300660438 -7.40382438203392 4.274600000000002 S-6.1908 1.3266000000000002 -6.1908 7.581543404161435e-16 S-8.067124382033922 -3.1257306993395604 -7.403824382033924 -4.274599999999997 S-4.244269300660439 -4.698090069748702 -3.095400000000003 -5.361390069748702 S-1.3266000000000011 -8.549199999999999 -1.5704625622905825e-15 -8.549199999999999 S1.9465306993395597 -6.024690069748704 3.095399999999996 -5.361390069748706 S6.740524382033919 -5.423469300660439 7.403824382033919 -4.274600000000003 S6.1908 -1.3266000000000011 6.1908 -1.516308680832287e-15" fill="#00d8ff" stroke-width="0" transform="matrix(1,0,0,1,0,0)" style="transform:matrix(1, 0, 0, 1, 0, 0);animation-play-state:paused" ></path></g>
<g transform="translate(1435.8130929450606,-161.05499825069228) scale(100)" opacity="0.4" style="transform:matrix(100, 0, 0, 100, 1435.81, -161.055);opacity:0.4;animation-play-state:paused" ><path d="M7.428959999999999 0 C7.428959999999999 1.5919199999999993 9.680549258440706 3.7508768392074754 8.884589258440707 5.1295199999999985 S5.093123160792524 5.637708083698442 3.7144800000000004 6.433668083698442 S1.59192 10.259039999999999 6.281850249162331e-16 10.259039999999999 S-2.3358368392074746 7.229628083698442 -3.714479999999998 6.433668083698443 S-8.088629258440704 6.508163160792526 -8.884589258440705 5.129520000000003 S-7.428959999999999 1.5919200000000002 -7.428959999999999 9.09785208499372e-16 S-9.680549258440708 -3.750876839207473 -8.884589258440709 -5.129519999999997 S-5.093123160792525 -5.637708083698441 -3.7144800000000027 -6.433668083698441 S-1.5919200000000011 -10.259039999999999 -1.884555074748699e-15 -10.259039999999999 S2.335836839207471 -7.229628083698444 3.7144799999999947 -6.4336680836984455 S8.088629258440703 -6.5081631607925265 8.884589258440704 -5.129520000000004 S7.428959999999999 -1.5919200000000011 7.428959999999999 -1.819570416998744e-15" fill="#73d8ff" stroke-width="0" transform="matrix(1,0,0,1,0,0)" style="transform:matrix(1, 0, 0, 1, 0, 0);animation-play-state:paused" ></path></g>
<g transform="translate(1715.3383301230847,-377.8769975509691) scale(100)" opacity="0.4" style="transform:matrix(100, 0, 0, 100, 1715.34, -377.877);opacity:0.4;animation-play-state:paused" ><path d="M10.400543999999998 0 C10.400543999999998 2.228687999999999 13.552768961816989 5.251227574890466 12.43842496181699 7.181327999999998 S7.130372425109532 7.892791317177818 5.200272 9.007135317177818 S2.228688 14.362655999999998 8.794590348827262e-16 14.362655999999998 S-3.270171574890464 10.121479317177819 -5.2002719999999965 9.00713531717782 S-11.324080961816986 9.111428425109535 -12.438424961816986 7.181328000000003 S-10.400543999999998 2.2286880000000004 -10.400543999999998 1.2736992918991208e-15 S-13.55276896181699 -5.251227574890462 -12.438424961816992 -7.181327999999995 S-7.1303724251095355 -7.892791317177817 -5.200272000000004 -9.007135317177818 S-2.228688000000002 -14.362655999999998 -2.6383771046481785e-15 -14.362655999999998 S3.270171574890459 -10.12147931717782 5.200271999999992 -9.007135317177823 S11.324080961816984 -9.111428425109537 12.438424961816985 -7.181328000000005 S10.400543999999998 -2.228688000000002 10.400543999999998 -2.5473985837982416e-15" fill="#a2d9ff" stroke-width="0" transform="matrix(1,0,0,1,0,0)" style="transform:matrix(1, 0, 0, 1, 0, 0);animation-play-state:paused" ></path></g></g></svg>