<?xml version="1.0" encoding="utf-8"?><svg xmlns="http://www.w3.org/2000/svg" xmlns:xlink="http://www.w3.org/1999/xlink" width="1474" height="340" preserveAspectRatio="xMidYMid" viewBox="0 0 1474 340" style="z-index:1;margin-right:-2px;display:block;background-repeat-y:initial;background-repeat-x:initial;background-color:rgba(255, 255, 255, 0);animation-play-state:paused" ><g transform="translate(737,170) scale(1,1) translate(-737,-170)" style="transform:matrix(1, 0, 0, 1, 0, 0);animation-play-state:paused" ><linearGradient id="lg-0.49702479558033463" x1="0" x2="1" y1="0" y2="0" style="animation-play-state:paused" ><stop stop-color="#a2d9ff" offset="0" style="animation-play-state:paused" ></stop>

  
<stop stop-color="#00e0ff" offset="1" style="animation-play-state:paused" ></stop></linearGradient>
<path d="M 0 0 M 0 282.783 Q 147.4 249.529 294.8 243.977 T 589.6 232.889 T 884.4 235.985 T 1179.2 243.751 T 1474 294.028 L 1474 112.426 Q 1326.6 108.953 1179.2 99.7262 T 884.4 110.23 T 589.6 82.9433 T 294.8 42.5699 T 0 110.048 Z" fill="url(#lg-0.49702479558033463)" opacity="0.4" style="opacity:0.4;animation-play-state:paused" ></path>
<path d="M 0 0 M 0 267.976 Q 147.4 249.813 294.8 242.335 T 589.6 254.09 T 884.4 251.291 T 1179.2 300.627 T 1474 242.946 L 1474 91.0676 Q 1326.6 110.864 1179.2 101.121 T 884.4 56.3459 T 589.6 53.3638 T 294.8 78.602 T 0 88.4172 Z" fill="url(#lg-0.49702479558033463)" opacity="0.4" style="opacity:0.4;animation-play-state:paused" ></path>
<path d="M 0 0 M 0 231.369 Q 147.4 256.753 294.8 251.883 T 589.6 265.866 T 884.4 279.174 T 1179.2 236.231 T 1474 264.692 L 1474 79.8154 Q 1326.6 115.63 1179.2 109.98 T 884.4 82.118 T 589.6 49.8361 T 294.8 94.1637 T 0 79.0963 Z" fill="url(#lg-0.49702479558033463)" opacity="0.4" style="opacity:0.4;animation-play-state:paused" ></path>
<path d="M 0 0 M 0 273.907 Q 147.4 289.131 294.8 283.606 T 589.6 304.479 T 884.4 237.554 T 1179.2 241.919 T 1474 250.712 L 1474 102.564 Q 1326.6 90.6443 1179.2 81.4546 T 884.4 99.031 T 589.6 65.2734 T 294.8 69.3086 T 0 78.672 Z" fill="url(#lg-0.49702479558033463)" opacity="0.4" style="opacity:0.4;animation-play-state:paused" ></path></g></svg>